<?xml version="1.0" encoding="UTF-8" standalone="no"?>
<!-- Created with Inkscape (http://www.inkscape.org/) -->

<svg
   xmlns:dc="http://purl.org/dc/elements/1.1/"
   xmlns:cc="http://creativecommons.org/ns#"
   xmlns:rdf="http://www.w3.org/1999/02/22-rdf-syntax-ns#"
   xmlns:svg="http://www.w3.org/2000/svg"
   xmlns="http://www.w3.org/2000/svg"
   xmlns:sodipodi="http://sodipodi.sourceforge.net/DTD/sodipodi-0.dtd"
   xmlns:inkscape="http://www.inkscape.org/namespaces/inkscape"
   width="700mm"
   height="500mm"
   viewBox="0 0 700 500"
   version="1.1"
   id="svg8"
   inkscape:version="0.92.1 r15371"
   sodipodi:docname="Touchphat Plate Cut.svg">
  <defs
     id="defs2" />
  <sodipodi:namedview
     id="base"
     pagecolor="#ffffff"
     bordercolor="#666666"
     borderopacity="1.0"
     inkscape:pageopacity="0.0"
     inkscape:pageshadow="2"
     inkscape:zoom="1.979899"
     inkscape:cx="747.86535"
     inkscape:cy="778.15258"
     inkscape:document-units="mm"
     inkscape:current-layer="layer1"
     showgrid="false"
     width="700mm"
     inkscape:measure-start="660.085,975.627"
     inkscape:measure-end="878.751,975.627"
     inkscape:window-width="1920"
     inkscape:window-height="1027"
     inkscape:window-x="-8"
     inkscape:window-y="-8"
     inkscape:window-maximized="1" />
  <metadata
     id="metadata5">
    <rdf:RDF>
      <cc:Work
         rdf:about="">
        <dc:format>image/svg+xml</dc:format>
        <dc:type
           rdf:resource="http://purl.org/dc/dcmitype/StillImage" />
        <dc:title></dc:title>
      </cc:Work>
    </rdf:RDF>
  </metadata>
  <g
     inkscape:label="Layer 1"
     inkscape:groupmode="layer"
     id="layer1"
     transform="translate(0,203)">
    <g
       id="Layer_x0020_1"
       transform="matrix(0.26458333,0,0,0.26458333,230.22265,6.2113888)">
      <sodipodi:namedview
         inkscape:cy="849.31355"
         inkscape:cx="507.09933"
         inkscape:zoom="0.94192914"
         showgrid="false"
         guidetolerance="10"
         gridtolerance="10"
         objecttolerance="10"
         bordercolor="#666666"
         pagecolor="#ffffff"
         borderopacity="1"
         id="namedview4"
         inkscape:window-height="855"
         inkscape:window-width="1391"
         inkscape:pageshadow="2"
         inkscape:pageopacity="0"
         inkscape:current-layer="g12"
         inkscape:window-maximized="1"
         inkscape:window-y="1"
         inkscape:window-x="49" />
    </g>
    <path
       id="path4503"
       d="m 302.12052,12.934451 c 0,0.402167 -0.21695,0.772584 -0.56356,0.973667 -0.34925,0.201083 -0.77787,0.201083 -1.12448,0 -0.34925,-0.201083 -0.56356,-0.5715 -0.56356,-0.973667 0,-0.402166 0.21431,-0.772583 0.56356,-0.973666 0.34661,-0.201084 0.77523,-0.201084 1.12448,0 0.34661,0.201083 0.56356,0.5715 0.56356,0.973666 z"
       inkscape:connector-curvature="0"
       style="fill:none;stroke-width:0.26458332" />
    <path
       style="fill:#000000;fill-opacity:1;stroke:none;stroke-width:1.30508947"
       d="M 755.64844 955.80469 C 750.58151 955.80469 746.50195 960.55023 746.50195 966.44531 L 746.50195 984.15039 L 750.2832 984.15039 L 753.91406 984.15039 L 780.51758 984.15039 C 782.61144 984.15039 784.29883 985.83778 784.29883 987.93164 L 784.29883 1003.8652 L 784.29883 1023.8359 L 784.29883 1027.6152 L 954.375 1027.6152 L 954.375 1023.8359 L 954.375 1003.8652 L 954.375 987.93164 C 954.375 985.83778 956.06239 984.15039 958.15625 984.15039 L 984.75977 984.15039 L 988.39062 984.15039 L 992.17188 984.15039 L 992.17188 966.44531 C 992.17188 960.55023 988.09232 955.80469 983.02539 955.80469 L 755.64844 955.80469 z M 759.73047 963.36328 A 5.6692912 5.6692912 0 0 1 765.40039 969.0332 A 5.6692912 5.6692912 0 0 1 759.73047 974.70312 A 5.6692912 5.6692912 0 0 1 754.06055 969.0332 A 5.6692912 5.6692912 0 0 1 759.73047 963.36328 z M 978.94531 963.36328 A 5.6692913 5.6692913 0 0 1 984.61328 969.0332 A 5.6692913 5.6692913 0 0 1 978.94531 974.70312 A 5.6692913 5.6692913 0 0 1 973.27539 969.0332 A 5.6692913 5.6692913 0 0 1 978.94531 963.36328 z "
       transform="matrix(0.26458333,0,0,0.26458333,0,-203)"
       id="rect4548" />
    <path
       style="fill:#bd0000;fill-opacity:1;stroke:none;stroke-width:0.26458332"
       d="m 209.86714,63.648228 h 5.94901 c 0.277,0 0.5,0.223 0.5,0.5 v 2.741773 c 0,0.277 -0.223,0.5 -0.5,0.5 h -5.94901 c -0.277,0 -0.5,-0.223 -0.5,-0.5 v -2.741773 c 0,-0.277 0.223,-0.5 0.5,-0.5 z"
       id="rect4633" />
    <path
       style="fill:#bd0000;fill-opacity:1;stroke:none;stroke-width:0.26458332"
       d="m 232.88519,63.648228 h 5.94901 c 0.277,0 0.5,0.223 0.5,0.5 v 2.741773 c 0,0.277 -0.223,0.5 -0.5,0.5 h -5.94901 c -0.277,0 -0.5,-0.223 -0.5,-0.5 v -2.741773 c 0,-0.277 0.223,-0.5 0.5,-0.5 z"
       id="rect4633-5" />
    <path
       style="fill:#bd0000;fill-opacity:1;stroke:none;stroke-width:0.26458332"
       d="m 221.37616,63.648228 h 5.94901 c 0.277,0 0.5,0.223 0.5,0.5 v 2.741773 c 0,0.277 -0.223,0.5 -0.5,0.5 h -5.94901 c -0.277,0 -0.5,-0.223 -0.5,-0.5 v -2.741773 c 0,-0.277 0.223,-0.5 0.5,-0.5 z"
       id="rect4633-2" />
    <path
       style="fill:#bd0000;fill-opacity:1;stroke:none;stroke-width:0.26458332"
       d="m 244.39421,63.648228 h 5.94901 c 0.277,0 0.5,0.223 0.5,0.5 v 2.741773 c 0,0.277 -0.223,0.5 -0.5,0.5 h -5.94901 c -0.277,0 -0.5,-0.223 -0.5,-0.5 v -2.741773 c 0,-0.277 0.223,-0.5 0.5,-0.5 z"
       id="rect4633-9" />
  </g>
</svg>
