  0
SECTION
  2
HEADER
  9
$ACADVER
  1
AC1014
  9
$HANDSEED
  5
FFFF
  9
$MEASUREMENT
 70
     1
  0
ENDSEC
  0
SECTION
  2
TABLES
  0
TABLE
  2
VPORT
  5
8
330
0
100
AcDbSymbolTable
 70
     4
  0
VPORT
  5
2E
330
8
100
AcDbSymbolTableRecord
100
AcDbViewportTableRecord
  2
*ACTIVE
 70
     0
 10
0.0
 20
0.0
 11
1.0
 21
1.0
 12
210.0
 22
148.5
 13
0.0
 23
0.0
 14
10.0
 24
10.0
 15
10.0
 25
10.0
 16
0.0
 26
0.0
 36
1.0
 17
0.0
 27
0.0
 37
0.0
 40
341.0
 41
1.24
 42
50.0
 43
0.0
 44
0.0
 50
0.0
 51
0.0
 71
     0
 72
   100
 73
     1
 74
     3
 75
     0
 76
     0
 77
     0
 78
     0
  0
ENDTAB
  0
TABLE
  2
LTYPE
  5
5
330
0
100
AcDbSymbolTable
 70
     1
  0
LTYPE
  5
14
330
5
100
AcDbSymbolTableRecord
100
AcDbLinetypeTableRecord
  2
BYBLOCK
 70
     0
  3

 72
    65
 73
     0
 40
0.0
  0
LTYPE
  5
15
330
5
100
AcDbSymbolTableRecord
100
AcDbLinetypeTableRecord
  2
BYLAYER
 70
     0
  3

 72
    65
 73
     0
 40
0.0
  0
LTYPE
  5
16
330
5
100
AcDbSymbolTableRecord
100
AcDbLinetypeTableRecord
  2
CONTINUOUS
 70
     0
  3
Solid line
 72
    65
 73
     0
 40
0.0
  0
ENDTAB
  0
TABLE
  2
LAYER
  5
2
100
AcDbSymbolTable
 70
2
  0
LAYER
  5
50
100
AcDbSymbolTableRecord
100
AcDbLayerTableRecord
  2
0
 70
0
  6
CONTINUOUS
  0
LAYER
  5
51
100
AcDbSymbolTableRecord
100
AcDbLayerTableRecord
  2
Layer_1
 70
0
  6
CONTINUOUS
  0
ENDTAB
  0
TABLE
  2
STYLE
  5
3
330
0
100
AcDbSymbolTable
 70
     1
  0
STYLE
  5
11
330
3
100
AcDbSymbolTableRecord
100
AcDbTextStyleTableRecord
  2
STANDARD
 70
     0
 40
0.0
 41
1.0
 50
0.0
 71
     0
 42
2.5
  3
txt
  4

  0
ENDTAB
  0
TABLE
  2
VIEW
  5
6
330
0
100
AcDbSymbolTable
 70
     0
  0
ENDTAB
  0
TABLE
  2
UCS
  5
7
330
0
100
AcDbSymbolTable
 70
     0
  0
ENDTAB
  0
TABLE
  2
APPID
  5
9
330
0
100
AcDbSymbolTable
 70
     2
  0
APPID
  5
12
330
9
100
AcDbSymbolTableRecord
100
AcDbRegAppTableRecord
  2
ACAD
 70
     0
  0
ENDTAB
  0
TABLE
  2
DIMSTYLE
  5
A
330
0
100
AcDbSymbolTable
 70
     1
  0
DIMSTYLE
105
27
330
A
100
AcDbSymbolTableRecord
100
AcDbDimStyleTableRecord
  2
ISO-25
 70
     0
  3

  4

  5

  6

  7

 40
1.0
 41
2.5
 42
0.625
 43
3.75
 44
1.25
 45
0.0
 46
0.0
 47
0.0
 48
0.0
140
2.5
141
2.5
142
0.0
143
0.03937007874016
144
1.0
145
0.0
146
1.0
147
0.625
 71
     0
 72
     0
 73
     0
 74
     0
 75
     0
 76
     0
 77
     1
 78
     8
170
     0
171
     3
172
     1
173
     0
174
     0
175
     0
176
     0
177
     0
178
     0
270
     2
271
     2
272
     2
273
     2
274
     3
340
11
275
     0
280
     0
281
     0
282
     0
283
     0
284
     8
285
     0
286
     0
287
     3
288
     0
  0
ENDTAB
  0
TABLE
  2
BLOCK_RECORD
  5
1
330
0
100
AcDbSymbolTable
 70
     1
  0
BLOCK_RECORD
  5
1F
330
1
100
AcDbSymbolTableRecord
100
AcDbBlockTableRecord
  2
*MODEL_SPACE
  0
BLOCK_RECORD
  5
1B
330
1
100
AcDbSymbolTableRecord
100
AcDbBlockTableRecord
  2
*PAPER_SPACE
  0
ENDTAB
  0
ENDSEC
  0
SECTION
  2
BLOCKS
  0
BLOCK
  5
20
330
1F
100
AcDbEntity
  8
0
100
AcDbBlockBegin
  2
*MODEL_SPACE
 70
     0
 10
0.0
 20
0.0
 30
0.0
  3
*MODEL_SPACE
  1

  0
ENDBLK
  5
21
330
1F
100
AcDbEntity
  8
0
100
AcDbBlockEnd
  0
BLOCK
  5
1C
330
1B
100
AcDbEntity
 67
     1
  8
0
100
AcDbBlockBegin
  2
*PAPER_SPACE
  1

  0
ENDBLK
  5
1D
330
1B
100
AcDbEntity
 67
     1
  8
0
100
AcDbBlockEnd
  0
ENDSEC
  0
SECTION
  2
ENTITIES
  0
SPLINE
  5
100
100
AcDbEntity
  8
Layer_1
 62
7
100
AcDbSpline
 70
8
 71
3
 72
8
 73
4
 74
0
 40
0
 40
0
 40
0
 40
0
 40
1
 40
1
 40
1
 40
1
 10
79.936054
 20
75.159010
 30
0.0
 10
79.936054
 20
75.052603
 30
0.0
 10
79.878653
 20
74.954597
 30
0.0
 10
79.786946
 20
74.901394
 30
0.0
  0
SPLINE
  5
101
100
AcDbEntity
  8
Layer_1
 62
7
100
AcDbSpline
 70
8
 71
3
 72
8
 73
4
 74
0
 40
0
 40
0
 40
0
 40
0
 40
1
 40
1
 40
1
 40
1
 10
79.786946
 20
74.901394
 30
0.0
 10
79.694540
 20
74.848191
 30
0.0
 10
79.581134
 20
74.848191
 30
0.0
 10
79.489427
 20
74.901394
 30
0.0
  0
SPLINE
  5
102
100
AcDbEntity
  8
Layer_1
 62
7
100
AcDbSpline
 70
8
 71
3
 72
8
 73
4
 74
0
 40
0
 40
0
 40
0
 40
0
 40
1
 40
1
 40
1
 40
1
 10
79.489427
 20
74.901394
 30
0.0
 10
79.397021
 20
74.954597
 30
0.0
 10
79.340318
 20
75.052603
 30
0.0
 10
79.340318
 20
75.159010
 30
0.0
  0
SPLINE
  5
103
100
AcDbEntity
  8
Layer_1
 62
7
100
AcDbSpline
 70
8
 71
3
 72
8
 73
4
 74
0
 40
0
 40
0
 40
0
 40
0
 40
1
 40
1
 40
1
 40
1
 10
79.340318
 20
75.159010
 30
0.0
 10
79.340318
 20
75.265416
 30
0.0
 10
79.397021
 20
75.363422
 30
0.0
 10
79.489427
 20
75.416626
 30
0.0
  0
SPLINE
  5
104
100
AcDbEntity
  8
Layer_1
 62
7
100
AcDbSpline
 70
8
 71
3
 72
8
 73
4
 74
0
 40
0
 40
0
 40
0
 40
0
 40
1
 40
1
 40
1
 40
1
 10
79.489427
 20
75.416626
 30
0.0
 10
79.581134
 20
75.469829
 30
0.0
 10
79.694540
 20
75.469829
 30
0.0
 10
79.786946
 20
75.416626
 30
0.0
  0
SPLINE
  5
105
100
AcDbEntity
  8
Layer_1
 62
7
100
AcDbSpline
 70
8
 71
3
 72
8
 73
4
 74
0
 40
0
 40
0
 40
0
 40
0
 40
1
 40
1
 40
1
 40
1
 10
79.786946
 20
75.416626
 30
0.0
 10
79.878653
 20
75.363422
 30
0.0
 10
79.936054
 20
75.265416
 30
0.0
 10
79.936054
 20
75.159010
 30
0.0
  0
SPLINE
  5
106
100
AcDbEntity
  8
Layer_1
 62
7
100
AcDbSpline
 70
8
 71
3
 72
8
 73
4
 74
0
 40
0
 40
0
 40
0
 40
0
 40
1
 40
1
 40
1
 40
1
 10
52.898670
 20
65.381191
 30
0.0
 10
52.543963
 20
65.381191
 30
0.0
 10
52.258376
 20
65.048982
 30
0.0
 10
52.258376
 20
64.636301
 30
0.0
  0
LWPOLYLINE
  5
107
100
AcDbEntity
  8
Layer_1
 62
7
100
AcDbPolyline
 90
1
 70
1
 10
79.936054
 20
75.159010
 30
0.0
  0
SPLINE
  5
108
100
AcDbEntity
  8
Layer_1
 62
7
100
AcDbSpline
 70
8
 71
3
 72
8
 73
4
 74
0
 40
0
 40
0
 40
0
 40
0
 40
1
 40
1
 40
1
 40
1
 10
54.639618
 20
63.396869
 30
0.0
 10
54.786197
 20
63.396869
 30
0.0
 10
54.904321
 20
63.278744
 30
0.0
 10
54.904321
 20
63.132165
 30
0.0
  0
LWPOLYLINE
  5
109
100
AcDbEntity
  8
Layer_1
 62
7
100
AcDbPolyline
 90
5
 70
0
 10
52.258376
 20
64.636301
 30
0.0
 10
52.258376
 20
63.396869
 30
0.0
 10
52.523080
 20
63.396869
 30
0.0
 10
52.777256
 20
63.396869
 30
0.0
 10
54.639618
 20
63.396869
 30
0.0
  0
SPLINE
  5
10a
100
AcDbEntity
  8
Layer_1
 62
7
100
AcDbSpline
 70
8
 71
3
 72
8
 73
4
 74
0
 40
0
 40
0
 40
0
 40
0
 40
1
 40
1
 40
1
 40
1
 10
66.810391
 20
63.132165
 30
0.0
 10
66.810391
 20
63.278744
 30
0.0
 10
66.928516
 20
63.396869
 30
0.0
 10
67.075095
 20
63.396869
 30
0.0
  0
LWPOLYLINE
  5
10b
100
AcDbEntity
  8
Layer_1
 62
7
100
AcDbPolyline
 90
8
 70
0
 10
54.904321
 20
63.132165
 30
0.0
 10
54.904321
 20
62.016746
 30
0.0
 10
54.904321
 20
60.618711
 30
0.0
 10
54.904321
 20
60.354143
 30
0.0
 10
66.810391
 20
60.354143
 30
0.0
 10
66.810391
 20
60.618711
 30
0.0
 10
66.810391
 20
62.016746
 30
0.0
 10
66.810391
 20
63.132165
 30
0.0
  0
SPLINE
  5
10c
100
AcDbEntity
  8
Layer_1
 62
7
100
AcDbSpline
 70
8
 71
3
 72
8
 73
4
 74
0
 40
0
 40
0
 40
0
 40
0
 40
1
 40
1
 40
1
 40
1
 10
69.456337
 20
64.636301
 30
0.0
 10
69.456337
 20
65.048982
 30
0.0
 10
69.170750
 20
65.381191
 30
0.0
 10
68.816043
 20
65.381191
 30
0.0
  0
LWPOLYLINE
  5
10d
100
AcDbEntity
  8
Layer_1
 62
7
100
AcDbPolyline
 90
5
 70
0
 10
67.075095
 20
63.396869
 30
0.0
 10
68.937457
 20
63.396869
 30
0.0
 10
69.191632
 20
63.396869
 30
0.0
 10
69.456337
 20
63.396869
 30
0.0
 10
69.456337
 20
64.636301
 30
0.0
  0
SPLINE
  5
10e
100
AcDbEntity
  8
Layer_1
 62
7
100
AcDbSpline
 70
8
 71
3
 72
8
 73
4
 74
0
 40
0
 40
0
 40
0
 40
0
 40
1
 40
1
 40
1
 40
1
 10
53.184430
 20
64.852057
 30
0.0
 10
53.289703
 20
64.852068
 30
0.0
 10
53.390667
 20
64.810254
 30
0.0
 10
53.465107
 20
64.735815
 30
0.0
  0
SPLINE
  5
10f
100
AcDbEntity
  8
Layer_1
 62
7
100
AcDbSpline
 70
8
 71
3
 72
8
 73
4
 74
0
 40
0
 40
0
 40
0
 40
0
 40
1
 40
1
 40
1
 40
1
 10
53.465107
 20
64.735815
 30
0.0
 10
53.539546
 20
64.661375
 30
0.0
 10
53.581360
 20
64.560411
 30
0.0
 10
53.581349
 20
64.455138
 30
0.0
  0
SPLINE
  5
110
100
AcDbEntity
  8
Layer_1
 62
7
100
AcDbSpline
 70
8
 71
3
 72
8
 73
4
 74
0
 40
0
 40
0
 40
0
 40
0
 40
1
 40
1
 40
1
 40
1
 10
53.581349
 20
64.455138
 30
0.0
 10
53.581360
 20
64.349865
 30
0.0
 10
53.539546
 20
64.248900
 30
0.0
 10
53.465107
 20
64.174461
 30
0.0
  0
SPLINE
  5
111
100
AcDbEntity
  8
Layer_1
 62
7
100
AcDbSpline
 70
8
 71
3
 72
8
 73
4
 74
0
 40
0
 40
0
 40
0
 40
0
 40
1
 40
1
 40
1
 40
1
 10
53.465107
 20
64.174461
 30
0.0
 10
53.390667
 20
64.100021
 30
0.0
 10
53.289703
 20
64.058207
 30
0.0
 10
53.184430
 20
64.058219
 30
0.0
  0
SPLINE
  5
112
100
AcDbEntity
  8
Layer_1
 62
7
100
AcDbSpline
 70
8
 71
3
 72
8
 73
4
 74
0
 40
0
 40
0
 40
0
 40
0
 40
1
 40
1
 40
1
 40
1
 10
53.184430
 20
64.058219
 30
0.0
 10
53.079157
 20
64.058207
 30
0.0
 10
52.978192
 20
64.100021
 30
0.0
 10
52.903753
 20
64.174461
 30
0.0
  0
SPLINE
  5
113
100
AcDbEntity
  8
Layer_1
 62
7
100
AcDbSpline
 70
8
 71
3
 72
8
 73
4
 74
0
 40
0
 40
0
 40
0
 40
0
 40
1
 40
1
 40
1
 40
1
 10
52.903753
 20
64.174461
 30
0.0
 10
52.829313
 20
64.248900
 30
0.0
 10
52.787499
 20
64.349865
 30
0.0
 10
52.787511
 20
64.455138
 30
0.0
  0
SPLINE
  5
114
100
AcDbEntity
  8
Layer_1
 62
7
100
AcDbSpline
 70
8
 71
3
 72
8
 73
4
 74
0
 40
0
 40
0
 40
0
 40
0
 40
1
 40
1
 40
1
 40
1
 10
52.787511
 20
64.455138
 30
0.0
 10
52.787499
 20
64.560411
 30
0.0
 10
52.829313
 20
64.661375
 30
0.0
 10
52.903753
 20
64.735815
 30
0.0
  0
SPLINE
  5
115
100
AcDbEntity
  8
Layer_1
 62
7
100
AcDbSpline
 70
8
 71
3
 72
8
 73
4
 74
0
 40
0
 40
0
 40
0
 40
0
 40
1
 40
1
 40
1
 40
1
 10
52.903753
 20
64.735815
 30
0.0
 10
52.978192
 20
64.810254
 30
0.0
 10
53.079157
 20
64.852068
 30
0.0
 10
53.184430
 20
64.852057
 30
0.0
  0
LWPOLYLINE
  5
116
100
AcDbEntity
  8
Layer_1
 62
7
100
AcDbPolyline
 90
3
 70
0
 10
68.816043
 20
65.381191
 30
0.0
 10
52.898670
 20
65.381191
 30
0.0
 10
52.898670
 20
65.381191
 30
0.0
  0
SPLINE
  5
117
100
AcDbEntity
  8
Layer_1
 62
7
100
AcDbSpline
 70
8
 71
3
 72
8
 73
4
 74
0
 40
0
 40
0
 40
0
 40
0
 40
1
 40
1
 40
1
 40
1
 10
68.530420
 20
64.852057
 30
0.0
 10
68.749589
 20
64.852006
 30
0.0
 10
68.927227
 20
64.674307
 30
0.0
 10
68.927202
 20
64.455138
 30
0.0
  0
SPLINE
  5
118
100
AcDbEntity
  8
Layer_1
 62
7
100
AcDbSpline
 70
8
 71
3
 72
8
 73
4
 74
0
 40
0
 40
0
 40
0
 40
0
 40
1
 40
1
 40
1
 40
1
 10
68.927202
 20
64.455138
 30
0.0
 10
68.927227
 20
64.235969
 30
0.0
 10
68.749589
 20
64.058270
 30
0.0
 10
68.530420
 20
64.058219
 30
0.0
  0
SPLINE
  5
119
100
AcDbEntity
  8
Layer_1
 62
7
100
AcDbSpline
 70
8
 71
3
 72
8
 73
4
 74
0
 40
0
 40
0
 40
0
 40
0
 40
1
 40
1
 40
1
 40
1
 10
68.530420
 20
64.058219
 30
0.0
 10
68.425147
 20
64.058207
 30
0.0
 10
68.324182
 20
64.100021
 30
0.0
 10
68.249743
 20
64.174461
 30
0.0
  0
SPLINE
  5
11a
100
AcDbEntity
  8
Layer_1
 62
7
100
AcDbSpline
 70
8
 71
3
 72
8
 73
4
 74
0
 40
0
 40
0
 40
0
 40
0
 40
1
 40
1
 40
1
 40
1
 10
68.249743
 20
64.174461
 30
0.0
 10
68.175303
 20
64.248900
 30
0.0
 10
68.133489
 20
64.349865
 30
0.0
 10
68.133501
 20
64.455138
 30
0.0
  0
SPLINE
  5
11b
100
AcDbEntity
  8
Layer_1
 62
7
100
AcDbSpline
 70
8
 71
3
 72
8
 73
4
 74
0
 40
0
 40
0
 40
0
 40
0
 40
1
 40
1
 40
1
 40
1
 10
68.133501
 20
64.455138
 30
0.0
 10
68.133489
 20
64.560411
 30
0.0
 10
68.175303
 20
64.661375
 30
0.0
 10
68.249743
 20
64.735815
 30
0.0
  0
SPLINE
  5
11c
100
AcDbEntity
  8
Layer_1
 62
7
100
AcDbSpline
 70
8
 71
3
 72
8
 73
4
 74
0
 40
0
 40
0
 40
0
 40
0
 40
1
 40
1
 40
1
 40
1
 10
68.249743
 20
64.735815
 30
0.0
 10
68.324182
 20
64.810254
 30
0.0
 10
68.425147
 20
64.852068
 30
0.0
 10
68.530420
 20
64.852057
 30
0.0
  0
LWPOLYLINE
  5
11d
100
AcDbEntity
  8
Layer_1
 62
7
100
AcDbPolyline
 90
1
 70
1
 10
53.184430
 20
64.852057
 30
0.0
  0
LWPOLYLINE
  5
11e
100
AcDbEntity
  8
Layer_1
 62
7
100
AcDbPolyline
 90
1
 70
1
 10
68.530420
 20
64.852057
 30
0.0
  0
SPLINE
  5
11f
100
AcDbEntity
  8
Layer_1
 62
7
100
AcDbSpline
 70
8
 71
3
 72
8
 73
4
 74
0
 40
0
 40
0
 40
0
 40
0
 40
1
 40
1
 40
1
 40
1
 10
57.101356
 20
61.740990
 30
0.0
 10
57.174646
 20
61.740990
 30
0.0
 10
57.233648
 20
61.681988
 30
0.0
 10
57.233648
 20
61.608698
 30
0.0
  0
LWPOLYLINE
  5
120
100
AcDbEntity
  8
Layer_1
 62
7
100
AcDbPolyline
 90
2
 70
0
 10
55.527347
 20
61.740990
 30
0.0
 10
57.101356
 20
61.740990
 30
0.0
  0
SPLINE
  5
121
100
AcDbEntity
  8
Layer_1
 62
7
100
AcDbSpline
 70
8
 71
3
 72
8
 73
4
 74
0
 40
0
 40
0
 40
0
 40
0
 40
1
 40
1
 40
1
 40
1
 10
57.233648
 20
60.883271
 30
0.0
 10
57.233648
 20
60.809981
 30
0.0
 10
57.174646
 20
60.750979
 30
0.0
 10
57.101356
 20
60.750979
 30
0.0
  0
LWPOLYLINE
  5
122
100
AcDbEntity
  8
Layer_1
 62
7
100
AcDbPolyline
 90
2
 70
0
 10
57.233648
 20
61.608698
 30
0.0
 10
57.233648
 20
60.883271
 30
0.0
  0
SPLINE
  5
123
100
AcDbEntity
  8
Layer_1
 62
7
100
AcDbSpline
 70
8
 71
3
 72
8
 73
4
 74
0
 40
0
 40
0
 40
0
 40
0
 40
1
 40
1
 40
1
 40
1
 10
55.527347
 20
60.750979
 30
0.0
 10
55.454058
 20
60.750979
 30
0.0
 10
55.395056
 20
60.809981
 30
0.0
 10
55.395056
 20
60.883271
 30
0.0
  0
LWPOLYLINE
  5
124
100
AcDbEntity
  8
Layer_1
 62
7
100
AcDbPolyline
 90
2
 70
0
 10
57.101356
 20
60.750979
 30
0.0
 10
55.527347
 20
60.750979
 30
0.0
  0
SPLINE
  5
125
100
AcDbEntity
  8
Layer_1
 62
7
100
AcDbSpline
 70
8
 71
3
 72
8
 73
4
 74
0
 40
0
 40
0
 40
0
 40
0
 40
1
 40
1
 40
1
 40
1
 10
55.395056
 20
61.608698
 30
0.0
 10
55.395056
 20
61.681988
 30
0.0
 10
55.454058
 20
61.740990
 30
0.0
 10
55.527347
 20
61.740990
 30
0.0
  0
LWPOLYLINE
  5
126
100
AcDbEntity
  8
Layer_1
 62
7
100
AcDbPolyline
 90
2
 70
0
 10
55.395056
 20
60.883271
 30
0.0
 10
55.395056
 20
61.608698
 30
0.0
  0
LWPOLYLINE
  5
127
100
AcDbEntity
  8
Layer_1
 62
7
100
AcDbPolyline
 90
1
 70
1
 10
55.527347
 20
61.740990
 30
0.0
  0
SPLINE
  5
128
100
AcDbEntity
  8
Layer_1
 62
7
100
AcDbSpline
 70
8
 71
3
 72
8
 73
4
 74
0
 40
0
 40
0
 40
0
 40
0
 40
1
 40
1
 40
1
 40
1
 10
63.191549
 20
61.740990
 30
0.0
 10
63.264838
 20
61.740990
 30
0.0
 10
63.323840
 20
61.681988
 30
0.0
 10
63.323840
 20
61.608698
 30
0.0
  0
LWPOLYLINE
  5
129
100
AcDbEntity
  8
Layer_1
 62
7
100
AcDbPolyline
 90
2
 70
0
 10
61.617540
 20
61.740990
 30
0.0
 10
63.191549
 20
61.740990
 30
0.0
  0
SPLINE
  5
12a
100
AcDbEntity
  8
Layer_1
 62
7
100
AcDbSpline
 70
8
 71
3
 72
8
 73
4
 74
0
 40
0
 40
0
 40
0
 40
0
 40
1
 40
1
 40
1
 40
1
 10
63.323840
 20
60.883271
 30
0.0
 10
63.323840
 20
60.809981
 30
0.0
 10
63.264838
 20
60.750979
 30
0.0
 10
63.191549
 20
60.750979
 30
0.0
  0
LWPOLYLINE
  5
12b
100
AcDbEntity
  8
Layer_1
 62
7
100
AcDbPolyline
 90
2
 70
0
 10
63.323840
 20
61.608698
 30
0.0
 10
63.323840
 20
60.883271
 30
0.0
  0
SPLINE
  5
12c
100
AcDbEntity
  8
Layer_1
 62
7
100
AcDbSpline
 70
8
 71
3
 72
8
 73
4
 74
0
 40
0
 40
0
 40
0
 40
0
 40
1
 40
1
 40
1
 40
1
 10
61.617540
 20
60.750979
 30
0.0
 10
61.544250
 20
60.750979
 30
0.0
 10
61.485248
 20
60.809981
 30
0.0
 10
61.485248
 20
60.883271
 30
0.0
  0
LWPOLYLINE
  5
12d
100
AcDbEntity
  8
Layer_1
 62
7
100
AcDbPolyline
 90
2
 70
0
 10
63.191549
 20
60.750979
 30
0.0
 10
61.617540
 20
60.750979
 30
0.0
  0
SPLINE
  5
12e
100
AcDbEntity
  8
Layer_1
 62
7
100
AcDbSpline
 70
8
 71
3
 72
8
 73
4
 74
0
 40
0
 40
0
 40
0
 40
0
 40
1
 40
1
 40
1
 40
1
 10
61.485248
 20
61.608698
 30
0.0
 10
61.485248
 20
61.681988
 30
0.0
 10
61.544250
 20
61.740990
 30
0.0
 10
61.617540
 20
61.740990
 30
0.0
  0
LWPOLYLINE
  5
12f
100
AcDbEntity
  8
Layer_1
 62
7
100
AcDbPolyline
 90
2
 70
0
 10
61.485248
 20
60.883271
 30
0.0
 10
61.485248
 20
61.608698
 30
0.0
  0
LWPOLYLINE
  5
130
100
AcDbEntity
  8
Layer_1
 62
7
100
AcDbPolyline
 90
1
 70
1
 10
61.617540
 20
61.740990
 30
0.0
  0
SPLINE
  5
131
100
AcDbEntity
  8
Layer_1
 62
7
100
AcDbSpline
 70
8
 71
3
 72
8
 73
4
 74
0
 40
0
 40
0
 40
0
 40
0
 40
1
 40
1
 40
1
 40
1
 10
60.146451
 20
61.740990
 30
0.0
 10
60.219741
 20
61.740990
 30
0.0
 10
60.278743
 20
61.681988
 30
0.0
 10
60.278743
 20
61.608698
 30
0.0
  0
LWPOLYLINE
  5
132
100
AcDbEntity
  8
Layer_1
 62
7
100
AcDbPolyline
 90
2
 70
0
 10
58.572442
 20
61.740990
 30
0.0
 10
60.146451
 20
61.740990
 30
0.0
  0
SPLINE
  5
133
100
AcDbEntity
  8
Layer_1
 62
7
100
AcDbSpline
 70
8
 71
3
 72
8
 73
4
 74
0
 40
0
 40
0
 40
0
 40
0
 40
1
 40
1
 40
1
 40
1
 10
60.278743
 20
60.883271
 30
0.0
 10
60.278743
 20
60.809981
 30
0.0
 10
60.219741
 20
60.750979
 30
0.0
 10
60.146451
 20
60.750979
 30
0.0
  0
LWPOLYLINE
  5
134
100
AcDbEntity
  8
Layer_1
 62
7
100
AcDbPolyline
 90
2
 70
0
 10
60.278743
 20
61.608698
 30
0.0
 10
60.278743
 20
60.883271
 30
0.0
  0
SPLINE
  5
135
100
AcDbEntity
  8
Layer_1
 62
7
100
AcDbSpline
 70
8
 71
3
 72
8
 73
4
 74
0
 40
0
 40
0
 40
0
 40
0
 40
1
 40
1
 40
1
 40
1
 10
58.572442
 20
60.750979
 30
0.0
 10
58.499153
 20
60.750979
 30
0.0
 10
58.440151
 20
60.809981
 30
0.0
 10
58.440151
 20
60.883271
 30
0.0
  0
LWPOLYLINE
  5
136
100
AcDbEntity
  8
Layer_1
 62
7
100
AcDbPolyline
 90
2
 70
0
 10
60.146451
 20
60.750979
 30
0.0
 10
58.572442
 20
60.750979
 30
0.0
  0
SPLINE
  5
137
100
AcDbEntity
  8
Layer_1
 62
7
100
AcDbSpline
 70
8
 71
3
 72
8
 73
4
 74
0
 40
0
 40
0
 40
0
 40
0
 40
1
 40
1
 40
1
 40
1
 10
58.440151
 20
61.608698
 30
0.0
 10
58.440151
 20
61.681988
 30
0.0
 10
58.499153
 20
61.740990
 30
0.0
 10
58.572442
 20
61.740990
 30
0.0
  0
LWPOLYLINE
  5
138
100
AcDbEntity
  8
Layer_1
 62
7
100
AcDbPolyline
 90
2
 70
0
 10
58.440151
 20
60.883271
 30
0.0
 10
58.440151
 20
61.608698
 30
0.0
  0
LWPOLYLINE
  5
139
100
AcDbEntity
  8
Layer_1
 62
7
100
AcDbPolyline
 90
1
 70
1
 10
58.572442
 20
61.740990
 30
0.0
  0
SPLINE
  5
13a
100
AcDbEntity
  8
Layer_1
 62
7
100
AcDbSpline
 70
8
 71
3
 72
8
 73
4
 74
0
 40
0
 40
0
 40
0
 40
0
 40
1
 40
1
 40
1
 40
1
 10
66.236644
 20
61.740990
 30
0.0
 10
66.309933
 20
61.740990
 30
0.0
 10
66.368935
 20
61.681988
 30
0.0
 10
66.368935
 20
61.608698
 30
0.0
  0
LWPOLYLINE
  5
13b
100
AcDbEntity
  8
Layer_1
 62
7
100
AcDbPolyline
 90
2
 70
0
 10
64.662635
 20
61.740990
 30
0.0
 10
66.236644
 20
61.740990
 30
0.0
  0
SPLINE
  5
13c
100
AcDbEntity
  8
Layer_1
 62
7
100
AcDbSpline
 70
8
 71
3
 72
8
 73
4
 74
0
 40
0
 40
0
 40
0
 40
0
 40
1
 40
1
 40
1
 40
1
 10
66.368935
 20
60.883271
 30
0.0
 10
66.368935
 20
60.809981
 30
0.0
 10
66.309933
 20
60.750979
 30
0.0
 10
66.236644
 20
60.750979
 30
0.0
  0
LWPOLYLINE
  5
13d
100
AcDbEntity
  8
Layer_1
 62
7
100
AcDbPolyline
 90
2
 70
0
 10
66.368935
 20
61.608698
 30
0.0
 10
66.368935
 20
60.883271
 30
0.0
  0
SPLINE
  5
13e
100
AcDbEntity
  8
Layer_1
 62
7
100
AcDbSpline
 70
8
 71
3
 72
8
 73
4
 74
0
 40
0
 40
0
 40
0
 40
0
 40
1
 40
1
 40
1
 40
1
 10
64.662635
 20
60.750979
 30
0.0
 10
64.589345
 20
60.750979
 30
0.0
 10
64.530343
 20
60.809981
 30
0.0
 10
64.530343
 20
60.883271
 30
0.0
  0
LWPOLYLINE
  5
13f
100
AcDbEntity
  8
Layer_1
 62
7
100
AcDbPolyline
 90
2
 70
0
 10
66.236644
 20
60.750979
 30
0.0
 10
64.662635
 20
60.750979
 30
0.0
  0
SPLINE
  5
140
100
AcDbEntity
  8
Layer_1
 62
7
100
AcDbSpline
 70
8
 71
3
 72
8
 73
4
 74
0
 40
0
 40
0
 40
0
 40
0
 40
1
 40
1
 40
1
 40
1
 10
64.530343
 20
61.608698
 30
0.0
 10
64.530343
 20
61.681988
 30
0.0
 10
64.589345
 20
61.740990
 30
0.0
 10
64.662635
 20
61.740990
 30
0.0
  0
LWPOLYLINE
  5
141
100
AcDbEntity
  8
Layer_1
 62
7
100
AcDbPolyline
 90
2
 70
0
 10
64.530343
 20
60.883271
 30
0.0
 10
64.530343
 20
61.608698
 30
0.0
  0
LWPOLYLINE
  5
142
100
AcDbEntity
  8
Layer_1
 62
7
100
AcDbPolyline
 90
1
 70
1
 10
64.662635
 20
61.740990
 30
0.0
  0
ENDSEC
  0
SECTION
  2
OBJECTS
  0
DICTIONARY
  5
C
330
0
100
AcDbDictionary
  3
ACAD_GROUP
350
D
  3
ACAD_MLINESTYLE
350
17
  0
DICTIONARY
  5
D
330
C
100
AcDbDictionary
  0
DICTIONARY
  5
1A
330
C
100
AcDbDictionary
  0
DICTIONARY
  5
17
330
C
100
AcDbDictionary
  3
STANDARD
350
18
  0
DICTIONARY
  5
19
330
C
100
AcDbDictionary
  0
ENDSEC
  0
EOF
